External Loads File
version=1
nRows=31
nColumns=13
Range=5.000000e-03-10 seconds
endheader
time 	forceRightX 	forceRightY 	forceRightZ 	pointRightX 	pointRightY 	pointRightZ 	forceLeftX 	forceLeftY 	forceLeftZ 	pointLeftX 	pointLeftY 	pointLeftZ 		
7.505000 -192.656658 713.591084 -0.000000 0.468467 0.291073 -0.193954 57.143484 5.233329 -0.000000 0.178416 0.356639 -0.442992
7.510000 -182.513087 725.901541 -0.000000 0.466655 0.280493 -0.193726 53.305749 1.655657 -0.000000 0.181499 0.367241 -0.442762
7.515000 -169.827444 736.735882 -0.000000 0.464119 0.270107 -0.193328 49.120986 -1.900773 -0.000000 0.185073 0.377791 -0.442740
7.520000 -154.889289 745.469650 -0.000000 0.460985 0.259767 -0.192941 44.709484 -5.490826 -0.000000 0.189161 0.388066 -0.442758
7.525000 -137.868593 751.488531 -0.000000 0.457331 0.249762 -0.192517 40.080918 -9.210097 -0.000000 0.193970 0.398264 -0.442682
7.530000 -120.643490 753.927203 -0.000000 0.453173 0.240346 -0.192250 35.207086 -13.061647 -0.000000 0.199138 0.408062 -0.442547
7.535000 -102.307106 752.580970 -0.000000 0.448445 0.231236 -0.191993 30.073376 -17.240559 -0.000000 0.204835 0.417565 -0.442553
7.540000 -83.565835 747.142964 -0.000000 0.443157 0.222469 -0.191619 24.760434 -21.945311 -0.000000 0.210879 0.426752 -0.442372
7.545000 -64.543444 737.597065 -0.000000 0.437266 0.214155 -0.191662 19.348710 -27.437586 -0.000000 0.217441 0.435639 -0.442194
7.550000 -45.820584 724.055668 -0.000000 0.431192 0.206221 -0.191652 13.864664 -33.893014 -0.000000 0.224654 0.444222 -0.442597
7.555000 -29.205888 706.721753 -0.000000 0.425051 0.198852 -0.191682 8.322098 -41.330468 -0.000000 0.231898 0.452484 -0.441778
7.560000 -12.825866 686.032498 -0.000000 0.418103 0.191899 -0.191442 2.493859 -49.658331 -0.000000 0.239516 0.460250 -0.441565
7.565000 2.985708 662.213125 -0.000000 0.410778 0.185464 -0.190865 -3.774001 -58.611111 -0.000000 0.247796 0.467521 -0.442024
7.570000 16.070971 635.500750 -0.000000 0.403074 0.179595 -0.190645 -10.408588 -67.938111 -0.000000 0.255541 0.474206 -0.441226
7.575000 28.422111 606.061749 -0.000000 0.395049 0.174326 -0.189909 -17.653055 -77.370162 -0.000000 0.263964 0.479974 -0.441215
7.580000 39.850767 574.009127 -0.000000 0.386895 0.169625 -0.190043 -25.522715 -86.560260 -0.000000 0.272795 0.485343 -0.441070
7.585000 50.235707 539.492635 -0.000000 0.378416 0.165415 -0.189851 -33.947870 -95.047860 -0.000000 0.281750 0.490085 -0.440894
7.590000 59.590962 502.750079 -0.000000 0.369707 0.162154 -0.189619 -42.755602 -102.312247 -0.000000 0.290976 0.494138 -0.440762
7.595000 68.259500 464.104111 -0.000000 0.360759 0.159326 -0.189178 -51.721704 -107.833353 -0.000000 0.300488 0.497299 -0.440587
7.600000 76.054919 424.065027 -0.000000 0.351513 0.157189 -0.188916 -60.438243 -111.237771 -0.000000 0.310004 0.499771 -0.440360
7.605000 83.339329 383.170837 -0.000000 0.342046 0.155965 -0.188770 -68.613400 -112.224367 -0.000000 0.319831 0.502030 -0.440397
7.610000 89.622927 342.217127 -0.000000 0.332371 0.155419 -0.188639 -75.766076 -110.739068 -0.000000 0.329614 0.503200 -0.440470
7.615000 95.155704 301.871690 -0.000000 0.322428 0.155639 -0.188455 -81.735719 -106.650666 -0.000000 0.339561 0.503604 -0.440539
7.620000 99.008079 263.105139 -0.000000 0.312441 0.156538 -0.188392 -86.128871 -100.098148 -0.000000 0.348907 0.503128 -0.440476
7.625000 101.562257 226.395427 -0.000000 0.302222 0.158158 -0.188490 -89.211891 -90.774754 -0.000000 0.358003 0.502139 -0.440785
7.630000 102.428418 192.384082 -0.000000 0.292279 0.160436 -0.188426 -91.196372 -78.476177 -0.000000 0.366832 0.500510 -0.441030
7.635000 101.771298 161.478724 -0.000000 0.282492 0.163400 -0.188811 -92.703182 -62.716885 -0.000000 0.375198 0.497893 -0.441338
7.640000 99.902144 134.031107 -0.000000 0.272824 0.166966 -0.189085 -94.512988 -42.867382 -0.000000 0.383135 0.494618 -0.441790
7.645000 97.236655 110.277144 -0.000000 0.263407 0.171163 -0.189279 -97.413663 -18.211534 -0.000000 0.390633 0.490600 -0.442048
7.650000 94.280579 90.196394 -0.000000 0.254225 0.175924 -0.189517 -102.036243 12.011795 -0.000000 0.397629 0.485711 -0.442580
7.655000 91.536565 73.484335 -0.000000 0.245236 0.181414 -0.189772 -108.595294 48.452484 -0.000000 0.404281 0.479977 -0.443318
